<svg xmlns="http://www.w3.org/2000/svg" xmlns:xlink="http://www.w3.org/1999/xlink" id="Layer_1" x="0px" y="0px" viewBox="0 0 382.6 94" style="enable-background:new 0 0 382.6 94;" xml:space="preserve"><style type="text/css">	.st0{fill:#34E0A1;}	.st1{fill:#00579F;}	.st2{fill:#FAA61A;}	.st3{fill:#FF5A00;}	.st4{fill:#EB001B;}	.st5{fill:#F79E1B;}	.st6{fill:#016FD0;}	.st7{fill:#FFFFFF;}</style><g>	<path d="M169.5,57c-0.5,0-0.9,0.4-0.9,0.9s0.4,0.9,0.9,0.9s0.9-0.4,0.9-0.9S170,57,169.5,57z M169.5,58.7c-0.4,0-0.8-0.4-0.8-0.8  s0.4-0.8,0.8-0.8s0.8,0.4,0.8,0.8S169.9,58.7,169.5,58.7z M169.8,57.8c0-0.2-0.1-0.3-0.3-0.3h-0.3v0.9h0.1V58h0.2l0.1,0.3h0.2  l-0.2-0.3C169.7,58,169.8,57.9,169.8,57.8L169.8,57.8z M169.5,57.9h-0.1v-0.3h0.1c0.1,0,0.2,0,0.2,0.1S169.6,57.9,169.5,57.9z   M56.3,47.5v-2.3h-3.5v13.5h3.5v-8.1c0-1.5,0.9-2.2,2.4-2.2h1.9v-3.2H59C57.7,45.2,56.6,45.9,56.3,47.5z M63.9,39.9  c-1.2,0-2.1,0.9-2.1,2.1s0.9,2.1,2.1,2.1c1.2,0,2.1-0.9,2.1-2.1C66,40.8,65.1,39.9,63.9,39.9z M62.1,58.7h3.5V45.2h-3.5  C62.1,45.2,62.1,58.7,62.1,58.7z M82.2,52c0,3.9-3.1,7-7,7c-1.6,0-3-0.5-4.1-1.4v5.1h-3.5V45.2h3.5v1.1c1.1-0.9,2.5-1.4,4.1-1.4  C79.1,45,82.2,48.1,82.2,52L82.2,52z M78.7,52c0-2.1-1.7-3.8-3.8-3.8s-3.8,1.7-3.8,3.8s1.7,3.8,3.8,3.8S78.7,54,78.7,52z   M142.6,50.8l-2-0.6c-1.3-0.3-1.9-0.8-1.9-1.5s0.7-1.2,1.8-1.2s1.8,0.7,1.8,1.5v0.1h3.2v-0.1c0-2.5-2-4.1-5-4.1s-5.1,1.7-5.1,3.9  c0,1.8,1.2,3.1,3.2,3.7l1.9,0.5c1.5,0.4,2,0.9,2,1.7c0,0.9-0.8,1.4-2,1.4s-2.1-0.8-2.1-1.9v-0.1h-3.4v0.1c0,2.8,2.2,4.7,5.4,4.7  s5.3-1.9,5.3-4.5C145.9,53.2,145.3,51.5,142.6,50.8L142.6,50.8z M94.5,45.2H98v13.5h-3.5v-1.1c-1.1,0.9-2.5,1.4-4.1,1.4  c-3.9,0-7-3.1-7-7s3.1-7,7-7c1.6,0,3,0.5,4.1,1.4V45.2L94.5,45.2z M94.5,52L94.5,52c0-2.1-1.7-3.8-3.8-3.8s-3.8,1.7-3.8,3.8  s1.7,3.8,3.8,3.8S94.5,54,94.5,52z M110.5,40.4h3.5v18.3h-3.5v-1.1c-1.1,0.9-2.5,1.4-4.1,1.4c-3.9,0-7-3.1-7-7s3.1-7,7-7  c1.6,0,3,0.5,4.1,1.4V40.4L110.5,40.4z M110.5,52c0-2.1-1.7-3.8-3.8-3.8S103,49.9,103,52s1.7,3.8,3.8,3.8S110.5,54,110.5,52z   M130.1,58.7h3.5V45.2h-3.5V58.7z M131.9,39.9c-1.2,0-2.1,0.9-2.1,2.1s0.9,2.1,2.1,2.1s2.1-0.9,2.1-2.1S133.1,39.9,131.9,39.9z   M160.9,52c0,3.9-3.1,7-7,7s-7-3.1-7-7s3.1-7,7-7S160.9,48.1,160.9,52z M157.7,52c0-2.1-1.7-3.8-3.8-3.8s-3.8,1.7-3.8,3.8  s1.7,3.8,3.8,3.8S157.7,54,157.7,52z M54.5,40.4H41.2v3.1h4.9v15.2h3.5V43.5h4.9L54.5,40.4L54.5,40.4L54.5,40.4z M121.9,55  l-3.1-9.8h-3.7l4.6,13.5h4.2l4.7-13.5H125L121.9,55z M166,47.5v-2.3h-3.5v13.5h3.5v-8.1c0-1.5,0.9-2.2,2.4-2.2h1.9v-3.2h-1.6  C167.4,45.2,166.3,45.9,166,47.5z"></path>	<circle class="st0" cx="21.1" cy="51" r="17.8"></circle>	<path d="M32.1,47.5l2.1-2.3h-4.8c-2.4-1.6-5.3-2.6-8.4-2.6s-6,1-8.4,2.6H8l2.1,2.3C8.8,48.7,8,50.5,8,52.4c0,3.6,2.9,6.5,6.6,6.5  c1.7,0,3.3-0.7,4.5-1.8l2.1,2.3l2.1-2.3c1.2,1.1,2.7,1.8,4.5,1.8c3.6,0,6.6-2.9,6.6-6.5C34.2,50.5,33.4,48.7,32.1,47.5L32.1,47.5z   M14.6,56.8c-2.4,0-4.4-2-4.4-4.4s2-4.4,4.4-4.4s4.4,2,4.4,4.4S17,56.8,14.6,56.8z M21.1,52.2c0-2.9-2.1-5.4-4.9-6.5  c1.5-0.6,3.2-1,4.9-1s3.4,0.3,4.9,1C23.2,46.8,21.1,49.3,21.1,52.2z M27.7,56.8c-2.5,0-4.4-2-4.4-4.4s2-4.4,4.4-4.4s4.4,2,4.4,4.4  S30.1,56.8,27.7,56.8z M27.7,50c-1.3,0-2.3,1-2.3,2.3s1,2.3,2.3,2.3s2.3-1,2.3-2.3S28.9,50,27.7,50z M16.9,52.4  c0,1.3-1,2.3-2.3,2.3s-2.3-1-2.3-2.3s1-2.3,2.3-2.3S16.9,51.1,16.9,52.4z"></path></g><polygon id="polygon9" class="st1" points="212.8,64.1 205.7,64.1 210.1,36.6 217.2,36.6 "></polygon><path id="path11" class="st1" d="M238.6,37.2c-1.4-0.6-3.6-1.2-6.4-1.2c-7,0-12,3.8-12,9.1c-0.1,4,3.5,6.2,6.2,7.5 c2.8,1.3,3.7,2.2,3.7,3.4c0,1.8-2.2,2.7-4.3,2.7c-2.8,0-4.4-0.4-6.7-1.5l-0.9-0.4l-1,6.2c1.7,0.8,4.7,1.4,7.9,1.5 c7.5,0,12.3-3.7,12.4-9.4c0-3.1-1.9-5.5-6-7.5c-2.5-1.3-4-2.1-4-3.4c0-1.2,1.3-2.4,4.1-2.4c2.3-0.1,4,0.5,5.3,1l0.6,0.3L238.6,37.2 L238.6,37.2L238.6,37.2z"></path><path id="path13" class="st1" d="M248,54.3c0.6-1.6,2.8-7.7,2.8-7.7c0,0.1,0.6-1.6,0.9-2.6l0.5,2.4c0,0,1.4,6.6,1.6,8 C254,54.3,248,54.3,248,54.3z M256.8,36.6h-5.5c-1.7,0-3,0.5-3.7,2.3L237,64.1h7.5c0,0,1.2-3.4,1.5-4.1h9.1c0.2,1,0.9,4.1,0.9,4.1 h6.6L256.8,36.6L256.8,36.6L256.8,36.6z"></path><path id="path15" class="st1" d="M199.7,36.6l-7,18.8l-0.8-3.8c-1.3-4.4-5.3-9.2-9.8-11.5l6.4,24.1h7.5l11.2-27.5H199.7L199.7,36.6z "></path><path id="path17" class="st2" d="M186.3,36.6h-11.4l-0.1,0.6c8.9,2.3,14.9,7.8,17.3,14.4l-2.5-12.7 C189.1,37.1,187.8,36.6,186.3,36.6L186.3,36.6L186.3,36.6z"></path><path d="M286,66.2v-2.3c0-0.9-0.5-1.5-1.5-1.5c-0.5,0-1,0.2-1.3,0.7c-0.3-0.4-0.7-0.7-1.2-0.7c-0.4,0-0.8,0.1-1.1,0.5v-0.5h-0.8v3.7 h0.8v-2.1c0-0.7,0.4-1,0.9-1s0.8,0.3,0.8,1v2.1h0.8v-2.1c0-0.7,0.4-1,0.9-1c0.5,0,0.8,0.3,0.8,1v2.1H286L286,66.2z M298.1,62.5h-1.3 v-1.1h-0.8v1.1h-0.7v0.7h0.7v1.7c0,0.8,0.4,1.3,1.3,1.3c0.4,0,0.7-0.1,1-0.3l-0.2-0.7c-0.2,0.2-0.5,0.2-0.7,0.2 c-0.4,0-0.5-0.2-0.5-0.6v-1.7h1.3L298.1,62.5L298.1,62.5L298.1,62.5z M304.9,62.4c-0.5,0-0.8,0.2-1,0.5v-0.5h-0.8v3.7h0.8v-2.1 c0-0.6,0.3-1,0.8-1c0.1,0,0.4,0,0.5,0.1l0.2-0.8C305.3,62.4,305.1,62.4,304.9,62.4L304.9,62.4L304.9,62.4z M294.5,62.8 c-0.4-0.3-0.9-0.4-1.5-0.4c-0.9,0-1.5,0.5-1.5,1.2c0,0.6,0.5,1,1.3,1.1l0.4,0c0.4,0.1,0.7,0.2,0.7,0.4c0,0.3-0.3,0.5-0.9,0.5 s-1-0.2-1.2-0.4l-0.4,0.6c0.4,0.3,1,0.5,1.6,0.5c1.1,0,1.7-0.5,1.7-1.2c0-0.7-0.5-1-1.3-1.1l-0.4,0c-0.4,0-0.6-0.1-0.6-0.3 c0-0.3,0.3-0.4,0.7-0.4c0.5,0,0.9,0.2,1.2,0.3L294.5,62.8L294.5,62.8L294.5,62.8z M316.1,62.4c-0.5,0-0.8,0.2-1,0.5v-0.5h-0.8v3.7 h0.8v-2.1c0-0.6,0.3-1,0.8-1c0.1,0,0.4,0,0.5,0.1l0.2-0.8C316.5,62.4,316.2,62.4,316.1,62.4L316.1,62.4L316.1,62.4z M305.7,64.3 c0,1.1,0.8,1.9,2,1.9c0.5,0,0.9-0.1,1.3-0.4l-0.4-0.7c-0.3,0.2-0.6,0.3-1,0.3c-0.7,0-1.1-0.5-1.1-1.2s0.5-1.2,1.1-1.2 c0.4,0,0.7,0.1,1,0.3l0.4-0.7c-0.4-0.3-0.8-0.4-1.3-0.4C306.5,62.4,305.7,63.2,305.7,64.3L305.7,64.3z M313.2,64.3v-1.9h-0.8v0.5 c-0.3-0.3-0.7-0.5-1.2-0.5c-1,0-1.9,0.8-1.9,1.9c0,1.1,0.8,1.9,1.9,1.9c0.5,0,0.9-0.2,1.2-0.5v0.5h0.8V64.3L313.2,64.3L313.2,64.3z  M310.3,64.3c0-0.7,0.4-1.2,1.1-1.2c0.7,0,1.1,0.5,1.1,1.2c0,0.7-0.5,1.2-1.1,1.2C310.7,65.5,310.3,65,310.3,64.3L310.3,64.3z  M300.6,62.4c-1.1,0-1.9,0.8-1.9,1.9s0.8,1.9,1.9,1.9c0.5,0,1.1-0.2,1.5-0.5l-0.4-0.6c-0.3,0.2-0.7,0.4-1.1,0.4 c-0.5,0-1-0.2-1.1-0.9h2.7v-0.3C302.3,63.2,301.6,62.4,300.6,62.4C300.6,62.4,300.6,62.4,300.6,62.4z M300.6,63.1 c0.5,0,0.9,0.3,0.9,0.9h-1.9C299.6,63.5,300,63.1,300.6,63.1L300.6,63.1z M320.7,64.3V61h-0.8V63c-0.3-0.3-0.7-0.5-1.2-0.5 c-1,0-1.9,0.8-1.9,1.9c0,1.1,0.8,1.9,1.9,1.9c0.5,0,0.9-0.2,1.2-0.5v0.5h0.8V64.3L320.7,64.3L320.7,64.3z M317.7,64.3 c0-0.7,0.4-1.2,1.1-1.2c0.7,0,1.1,0.5,1.1,1.2c0,0.7-0.5,1.2-1.1,1.2C318.1,65.5,317.7,65,317.7,64.3L317.7,64.3z M290.6,64.3v-1.9 h-0.8v0.5c-0.3-0.3-0.7-0.5-1.2-0.5c-1,0-1.9,0.8-1.9,1.9c0,1.1,0.8,1.9,1.9,1.9c0.5,0,0.9-0.2,1.2-0.5v0.5h0.8V64.3L290.6,64.3 L290.6,64.3z M287.6,64.3c0-0.7,0.4-1.2,1.1-1.2c0.7,0,1.1,0.5,1.1,1.2c0,0.7-0.5,1.2-1.1,1.2C288,65.5,287.6,65,287.6,64.3z"></path><rect id="rect19" x="294.3" y="34.3" class="st3" width="12.2" height="21.9"></rect><path class="st4" d="M295.1,45.2c0-4.4,2.1-8.4,5.3-10.9c-2.4-1.9-5.3-3-8.6-3c-7.7,0-13.9,6.2-13.9,13.9s6.2,13.9,13.9,13.9 c3.2,0,6.2-1.1,8.6-3C297.2,53.7,295.1,49.7,295.1,45.2L295.1,45.2z"></path><path id="path22" class="st5" d="M322.9,45.2c0,7.7-6.2,13.9-13.9,13.9c-3.2,0-6.2-1.1-8.6-3c3.2-2.5,5.3-6.5,5.3-10.9 s-2.1-8.4-5.3-10.9c2.4-1.9,5.3-3,8.6-3C316.7,31.3,322.9,37.6,322.9,45.2L322.9,45.2z"></path><path id="path3078" class="st6" d="M338.1,29h40.1v21.6l-2,3.1l2,2.8V69h-40.1V48.6l1.2-1.4l-1.2-1.4V29L338.1,29z"></path><path id="path3082" class="st7" d="M345.9,56.9v-6.3h6.7l0.7,0.9l0.7-0.9h24.2v5.9c0,0-0.6,0.4-1.4,0.4h-13.4l-0.8-1v1h-2.6v-1.7 c0,0-0.4,0.2-1.1,0.2h-0.9v1.5h-4l-0.7-1l-0.7,1L345.9,56.9L345.9,56.9z"></path><path id="path3080" class="st7" d="M338.1,45.8l1.5-3.5h2.6l0.9,2v-2h3.2l0.5,1.4l0.5-1.4h14.5v0.7c0,0,0.8-0.7,2-0.7l4.7,0l0.8,1.9 v-2h2.7l0.7,1.1v-1.1h2.7v6.3h-2.7l-0.7-1.1v1.1h-4l-0.4-1h-1.1l-0.4,1h-2.7c-1.1,0-1.8-0.7-1.8-0.7v0.7h-4.1l-0.8-1v1h-15.1l-0.4-1 h-1.1l-0.4,1h-1.9L338.1,45.8L338.1,45.8z"></path><path id="path3046" class="st6" d="M340.1,43.1l-2,4.7h1.3l0.4-0.9h2.2l0.4,0.9h1.4l-2-4.7H340.1L340.1,43.1z M340.9,44.2l0.7,1.7 h-1.3L340.9,44.2L340.9,44.2z"></path><path id="path3048" class="st6" d="M343.8,47.8v-4.7h1.9l1.1,3l1.1-3h1.9v4.7h-1.2v-3.5l-1.2,3.5h-1l-1.2-3.5v3.5H343.8L343.8,47.8z "></path><path id="path3050" class="st6" d="M350.5,47.8v-4.7h3.8v1h-2.6V45h2.6v1h-2.6v0.8h2.6v1C354.3,47.8,350.5,47.8,350.5,47.8z"></path><path id="path3052" class="st6" d="M355,43.1v4.7h1.2v-1.7h0.5l1.4,1.7h1.4l-1.5-1.7c0.6,0,1.3-0.6,1.3-1.5c0-1-0.8-1.5-1.6-1.5 L355,43.1L355,43.1z M356.2,44.2h1.4c0.3,0,0.6,0.2,0.6,0.5c0,0.3-0.3,0.5-0.5,0.5h-1.4L356.2,44.2L356.2,44.2L356.2,44.2z"></path><path id="path3054" class="st6" d="M361,47.8h-1.2v-4.7h1.2V47.8z"></path><path id="path3056" class="st6" d="M363.8,47.8h-0.3c-1.3,0-2-1-2-2.3s0.8-2.4,2.3-2.4h1.3v1.1h-1.4c-0.6,0-1.1,0.5-1.1,1.3 c0,0.9,0.5,1.3,1.3,1.3h0.3L363.8,47.8L363.8,47.8z"></path><path id="path3058" class="st6" d="M366.4,43.1l-2,4.7h1.3l0.4-0.9h2.2l0.4,0.9h1.4l-2-4.7H366.4L366.4,43.1z M367.1,44.2l0.7,1.7 h-1.3L367.1,44.2L367.1,44.2L367.1,44.2z"></path><path id="path3060" class="st6" d="M370.1,47.8v-4.7h1.5l1.9,3v-3h1.2v4.7h-1.5l-2-3v3H370.1z"></path><path id="path3062" class="st6" d="M346.7,56.1v-4.7h3.8v1h-2.6v0.8h2.6v1h-2.6v0.8h2.6v1C350.5,56.1,346.7,56.1,346.7,56.1z"></path><path id="path3064" class="st6" d="M365.5,56.1v-4.7h3.8v1h-2.6v0.8h2.6v1h-2.6v0.8h2.6v1C369.3,56.1,365.5,56.1,365.5,56.1z"></path><path id="path3066" class="st6" d="M350.6,56.1l1.9-2.3l-1.9-2.4h1.5l1.1,1.5l1.1-1.5h1.4l-1.9,2.4l1.9,2.4h-1.5l-1.1-1.5l-1.1,1.5 L350.6,56.1L350.6,56.1z"></path><path id="path3068" class="st6" d="M355.9,51.4v4.7h1.2v-1.5h1.2c1,0,1.8-0.6,1.8-1.6c0-0.9-0.6-1.6-1.7-1.6L355.9,51.4L355.9,51.4z  M357.1,52.4h1.3c0.3,0,0.6,0.2,0.6,0.5c0,0.3-0.2,0.5-0.6,0.5h-1.3V52.4L357.1,52.4z"></path><path id="path3072" class="st6" d="M360.7,51.4v4.7h1.2v-1.7h0.5l1.4,1.7h1.4l-1.5-1.7c0.6,0,1.3-0.6,1.3-1.5c0-1-0.8-1.5-1.6-1.5 L360.7,51.4L360.7,51.4L360.7,51.4z M361.9,52.4h1.4c0.3,0,0.6,0.2,0.6,0.5c0,0.3-0.3,0.5-0.5,0.5h-1.4L361.9,52.4L361.9,52.4z"></path><path id="path3074" class="st6" d="M369.9,56.1v-1h2.4c0.4,0,0.5-0.2,0.5-0.4s-0.1-0.4-0.5-0.4h-1.1c-0.9,0-1.4-0.6-1.4-1.4 c0-0.8,0.5-1.5,1.9-1.5h2.3l-0.5,1.1h-2c-0.4,0-0.5,0.2-0.5,0.4s0.1,0.4,0.4,0.4h1.1c1,0,1.5,0.6,1.5,1.3c0,0.8-0.5,1.5-1.5,1.5 L369.9,56.1L369.9,56.1z"></path><path id="path3076" class="st6" d="M374.2,56.1v-1h2.4c0.4,0,0.5-0.2,0.5-0.4s-0.1-0.4-0.5-0.4h-1.1c-0.9,0-1.4-0.6-1.4-1.4 c0-0.8,0.5-1.5,1.9-1.5h2.3l-0.5,1.1h-2c-0.4,0-0.5,0.2-0.5,0.4s0.1,0.4,0.4,0.4h1.1c1,0,1.5,0.6,1.5,1.3c0,0.8-0.5,1.5-1.5,1.5 L374.2,56.1L374.2,56.1z"></path></svg>